<?xml version="1.0" encoding="UTF-8"?><svg id="a" xmlns="http://www.w3.org/2000/svg" xmlns:xlink="http://www.w3.org/1999/xlink" viewBox="0 0 336.62 752.57"><defs><style>.c{fill:url(#b);stroke:#248aaf;stroke-miterlimit:10;}.d{fill:#010101;}</style><linearGradient id="b" x1="168.31" y1="-7.43" x2="168.31" y2="730.54" gradientTransform="matrix(1, 0, 0, 1, 0, 0)" gradientUnits="userSpaceOnUse"><stop offset=".23" stop-color="#248aaf"/><stop offset=".45" stop-color="#248aaf"/><stop offset=".5" stop-color="#1c7ea1"/><stop offset=".59" stop-color="#106d8c"/><stop offset=".69" stop-color="#08607d"/><stop offset=".82" stop-color="#035974"/><stop offset="1" stop-color="#025772"/></linearGradient></defs><path class="c" d="M336.12,168.31c0,92.68-167.81,582.71-167.81,582.71C168.31,751.02,.5,260.99,.5,168.31S75.63,.5,168.31,.5s167.81,75.13,167.81,167.81Z"/><path class="d" d="M216.12,85.85c-20.69,0-29.43,9.87-43.83,9.87s-26.04-9.8-43.96-9.8-36.26,10.71-48.14,28.96c-16.68,25.73-13.85,74.2,13.17,115.49,9.67,14.78,22.57,31.36,39.5,31.54h.31c14.71,0,19.08-9.63,39.33-9.75h.31c19.95,0,23.95,9.69,38.6,9.69h.31c16.93-.18,30.53-18.55,40.2-33.27,6.96-10.59,9.54-15.9,14.88-27.88-39.09-14.84-45.37-70.25-6.71-91.49-11.8-14.78-28.38-23.33-44.01-23.33l.05-.02Z"/><path class="d" d="M211.56,32.05c-12.31,.84-26.68,8.68-35.09,18.91-7.63,9.28-13.91,23.04-11.45,36.38h.99c13.11,0,26.53-7.9,34.37-18.01,7.55-9.63,13.28-23.28,11.18-37.28Z"/></svg>