<?xml version="1.0" encoding="UTF-8"?><svg id="a" xmlns="http://www.w3.org/2000/svg" viewBox="0 0 467.51 46.96"><defs><style>.b{fill:none;stroke:#308fb5;stroke-miterlimit:10;}</style></defs><path class="b" d="M443.01,46.46H41.01c-2.69-.08-10.7-.55-16.97-4.68-2.09-1.38-3.48-2.82-4.4-4.04-6.45-6.98-7.89-12.35-17.6-18.03,8.87,.46,6.2,1.9,15.07,2.37,.25-2.82,1.04-5.44,1.47-8.19,.26-1.69,.8-3.33,1.68-4.8,.76-1.27,1.91-2.66,3.79-3.9C30.62,.82,38.92,.53,41.01,.5H443.01c13.25,0,24,7.16,24,15.98v13.99c0,8.83-10.75,15.98-24,15.98Z"/></svg>